<?xml version="1.0" encoding="UTF-8" standalone="no"?>
<!DOCTYPE svg PUBLIC "-//W3C//DTD SVG 1.1//EN"
 "http://www.w3.org/Graphics/SVG/1.1/DTD/svg11.dtd">
<!-- Generated by graphviz version 10.0.1 (20240210.2158)
 -->
<!-- Title: TJ301SoA Pages: 1 -->
<svg width="1420pt" height="163pt"
 viewBox="0.00 0.00 1419.50 163.00" xmlns="http://www.w3.org/2000/svg" xmlns:xlink="http://www.w3.org/1999/xlink">
<g id="graph0" class="graph" transform="scale(1 1) rotate(0) translate(4 159)">
<title>TJ301SoA</title>
<polygon fill="white" stroke="none" points="-4,4 -4,-159 1415.5,-159 1415.5,4 -4,4"/>
<g id="clust1" class="cluster">
<title>cluster_runIn</title>
<path fill="#e8f0fe" stroke="#5b7db1" d="M52.2,-8C52.2,-8 95,-8 95,-8 101,-8 107,-14 107,-20 107,-20 107,-53 107,-53 107,-59 101,-65 95,-65 95,-65 52.2,-65 52.2,-65 46.2,-65 40.2,-59 40.2,-53 40.2,-53 40.2,-20 40.2,-20 40.2,-14 46.2,-8 52.2,-8"/>
<text text-anchor="middle" x="73.7" y="-51.5" font-family="Helvetica,sans-Serif" font-size="10.00" fill="#333333">Run&#45;in Visit</text>
<text text-anchor="middle" x="73.7" y="-40.25" font-family="Helvetica,sans-Serif" font-size="10.00" fill="#333333">D&#45;42</text>
</g>
<g id="clust2" class="cluster">
<title>cluster_screening</title>
<path fill="#e8f0fe" stroke="#5b7db1" d="M197.4,-8C197.4,-8 255.2,-8 255.2,-8 261.2,-8 267.2,-14 267.2,-20 267.2,-20 267.2,-64 267.2,-64 267.2,-70 261.2,-76 255.2,-76 255.2,-76 197.4,-76 197.4,-76 191.4,-76 185.4,-70 185.4,-64 185.4,-64 185.4,-20 185.4,-20 185.4,-14 191.4,-8 197.4,-8"/>
<text text-anchor="middle" x="226.4" y="-62.5" font-family="Helvetica,sans-Serif" font-size="10.00" fill="#333333">Screening Visit</text>
<text text-anchor="middle" x="226.4" y="-51.25" font-family="Helvetica,sans-Serif" font-size="10.00" fill="#333333">D&#45;28 (±0/+27)</text>
<text text-anchor="middle" x="226.4" y="-40" font-family="Helvetica,sans-Serif" font-size="10.00" fill="#333333">8 activities</text>
</g>
<g id="clust3" class="cluster">
<title>cluster_baseline</title>
<path fill="#e0f7fa" stroke="#00838f" d="M366.6,-8C366.6,-8 429.4,-8 429.4,-8 435.4,-8 441.4,-14 441.4,-20 441.4,-20 441.4,-75 441.4,-75 441.4,-81 435.4,-87 429.4,-87 429.4,-87 366.6,-87 366.6,-87 360.6,-87 354.6,-81 354.6,-75 354.6,-75 354.6,-20 354.6,-20 354.6,-14 360.6,-8 366.6,-8"/>
<text text-anchor="middle" x="398.22" y="-73.5" font-family="Helvetica,sans-Serif" font-size="10.00" fill="#333333">Randomisation /</text>
<text text-anchor="middle" x="398.22" y="-62.25" font-family="Helvetica,sans-Serif" font-size="10.00" fill="#333333">Baseline</text>
<text text-anchor="middle" x="398.22" y="-51" font-family="Helvetica,sans-Serif" font-size="10.00" fill="#333333">D0</text>
<text text-anchor="middle" x="398.22" y="-39.75" font-family="Helvetica,sans-Serif" font-size="10.00" fill="#333333">6 activities</text>
</g>
<g id="clust4" class="cluster">
<title>cluster_visit3</title>
<path fill="#fff3e0" stroke="#e65100" d="M541.8,-8C541.8,-8 593.6,-8 593.6,-8 599.6,-8 605.6,-14 605.6,-20 605.6,-20 605.6,-64 605.6,-64 605.6,-70 599.6,-76 593.6,-76 593.6,-76 541.8,-76 541.8,-76 535.8,-76 529.8,-70 529.8,-64 529.8,-64 529.8,-20 529.8,-20 529.8,-14 535.8,-8 541.8,-8"/>
<text text-anchor="middle" x="567.8" y="-62.5" font-family="Helvetica,sans-Serif" font-size="10.00" fill="#333333">Visit 3 (Wk 2)</text>
<text text-anchor="middle" x="567.8" y="-51.25" font-family="Helvetica,sans-Serif" font-size="10.00" fill="#333333">D14 (±3)</text>
<text text-anchor="middle" x="567.8" y="-40" font-family="Helvetica,sans-Serif" font-size="10.00" fill="#333333">6 activities</text>
</g>
<g id="clust5" class="cluster">
<title>cluster_visit4</title>
<path fill="#fff3e0" stroke="#e65100" d="M711,-8C711,-8 762.8,-8 762.8,-8 768.8,-8 774.8,-14 774.8,-20 774.8,-20 774.8,-64 774.8,-64 774.8,-70 768.8,-76 762.8,-76 762.8,-76 711,-76 711,-76 705,-76 699,-70 699,-64 699,-64 699,-20 699,-20 699,-14 705,-8 711,-8"/>
<text text-anchor="middle" x="737" y="-62.5" font-family="Helvetica,sans-Serif" font-size="10.00" fill="#333333">Visit 4 (Wk 4)</text>
<text text-anchor="middle" x="737" y="-51.25" font-family="Helvetica,sans-Serif" font-size="10.00" fill="#333333">D28 (±3)</text>
<text text-anchor="middle" x="737" y="-40" font-family="Helvetica,sans-Serif" font-size="10.00" fill="#333333">5 activities</text>
</g>
<g id="clust6" class="cluster">
<title>cluster_visit5</title>
<path fill="#fff3e0" stroke="#e65100" d="M852,-8C852,-8 903.8,-8 903.8,-8 909.8,-8 915.8,-14 915.8,-20 915.8,-20 915.8,-64 915.8,-64 915.8,-70 909.8,-76 903.8,-76 903.8,-76 852,-76 852,-76 846,-76 840,-70 840,-64 840,-64 840,-20 840,-20 840,-14 846,-8 852,-8"/>
<text text-anchor="middle" x="878" y="-62.5" font-family="Helvetica,sans-Serif" font-size="10.00" fill="#333333">Visit 5 (Wk 6)</text>
<text text-anchor="middle" x="878" y="-51.25" font-family="Helvetica,sans-Serif" font-size="10.00" fill="#333333">D42 (±3)</text>
<text text-anchor="middle" x="878" y="-40" font-family="Helvetica,sans-Serif" font-size="10.00" fill="#333333">5 activities</text>
</g>
<g id="clust7" class="cluster">
<title>cluster_visit6</title>
<path fill="#fff3e0" stroke="#e65100" d="M965.8,-8C965.8,-8 1017.6,-8 1017.6,-8 1023.6,-8 1029.6,-14 1029.6,-20 1029.6,-20 1029.6,-64 1029.6,-64 1029.6,-70 1023.6,-76 1017.6,-76 1017.6,-76 965.8,-76 965.8,-76 959.8,-76 953.8,-70 953.8,-64 953.8,-64 953.8,-20 953.8,-20 953.8,-14 959.8,-8 965.8,-8"/>
<text text-anchor="middle" x="991.8" y="-62.5" font-family="Helvetica,sans-Serif" font-size="10.00" fill="#333333">Visit 6 (Wk 8)</text>
<text text-anchor="middle" x="991.8" y="-51.25" font-family="Helvetica,sans-Serif" font-size="10.00" fill="#333333">D56 (±3)</text>
<text text-anchor="middle" x="991.8" y="-40" font-family="Helvetica,sans-Serif" font-size="10.00" fill="#333333">6 activities</text>
</g>
<g id="clust8" class="cluster">
<title>cluster_visit7</title>
<path fill="#fff3e0" stroke="#e65100" d="M1079.6,-8C1079.6,-8 1136.4,-8 1136.4,-8 1142.4,-8 1148.4,-14 1148.4,-20 1148.4,-20 1148.4,-64 1148.4,-64 1148.4,-70 1142.4,-76 1136.4,-76 1136.4,-76 1079.6,-76 1079.6,-76 1073.6,-76 1067.6,-70 1067.6,-64 1067.6,-64 1067.6,-20 1067.6,-20 1067.6,-14 1073.6,-8 1079.6,-8"/>
<text text-anchor="middle" x="1108.22" y="-62.5" font-family="Helvetica,sans-Serif" font-size="10.00" fill="#333333">Visit 7 (Wk 10)</text>
<text text-anchor="middle" x="1108.22" y="-51.25" font-family="Helvetica,sans-Serif" font-size="10.00" fill="#333333">D70 (±3)</text>
<text text-anchor="middle" x="1108.22" y="-40" font-family="Helvetica,sans-Serif" font-size="10.00" fill="#333333">5 activities</text>
</g>
<g id="clust9" class="cluster">
<title>cluster_eot</title>
<path fill="#fce4ec" stroke="#c62828" d="M1198.4,-8C1198.4,-8 1265.2,-8 1265.2,-8 1271.2,-8 1277.2,-14 1277.2,-20 1277.2,-20 1277.2,-75 1277.2,-75 1277.2,-81 1271.2,-87 1265.2,-87 1265.2,-87 1198.4,-87 1198.4,-87 1192.4,-87 1186.4,-81 1186.4,-75 1186.4,-75 1186.4,-20 1186.4,-20 1186.4,-14 1192.4,-8 1198.4,-8"/>
<text text-anchor="middle" x="1232.28" y="-73.5" font-family="Helvetica,sans-Serif" font-size="10.00" fill="#333333">End of Treatment</text>
<text text-anchor="middle" x="1232.28" y="-62.25" font-family="Helvetica,sans-Serif" font-size="10.00" fill="#333333">(Wk 12)</text>
<text text-anchor="middle" x="1232.28" y="-51" font-family="Helvetica,sans-Serif" font-size="10.00" fill="#333333">D84 (±3)</text>
<text text-anchor="middle" x="1232.28" y="-39.75" font-family="Helvetica,sans-Serif" font-size="10.00" fill="#333333">7 activities</text>
</g>
<g id="clust10" class="cluster">
<title>cluster_followUp</title>
<path fill="#e8f5e9" stroke="#2e7d32" d="M1334.7,-8C1334.7,-8 1399.5,-8 1399.5,-8 1405.5,-8 1411.5,-14 1411.5,-20 1411.5,-20 1411.5,-75 1411.5,-75 1411.5,-81 1405.5,-87 1399.5,-87 1399.5,-87 1334.7,-87 1334.7,-87 1328.7,-87 1322.7,-81 1322.7,-75 1322.7,-75 1322.7,-20 1322.7,-20 1322.7,-14 1328.7,-8 1334.7,-8"/>
<text text-anchor="middle" x="1367.45" y="-73.5" font-family="Helvetica,sans-Serif" font-size="10.00" fill="#333333">Safety Follow&#45;up</text>
<text text-anchor="middle" x="1367.45" y="-62.25" font-family="Helvetica,sans-Serif" font-size="10.00" fill="#333333">(Wk 15)</text>
<text text-anchor="middle" x="1367.45" y="-51" font-family="Helvetica,sans-Serif" font-size="10.00" fill="#333333">D105 (±5)</text>
<text text-anchor="middle" x="1367.45" y="-39.75" font-family="Helvetica,sans-Serif" font-size="10.00" fill="#333333">3 activities</text>
</g>
<g id="clust11" class="cluster">
<title>cluster_legend</title>
<path fill="#f5f5f5" stroke="#cccccc" d="M20,-95C20,-95 790,-95 790,-95 796,-95 802,-101 802,-107 802,-107 802,-135 802,-135 802,-141 796,-147 790,-147 790,-147 20,-147 20,-147 14,-147 8,-141 8,-135 8,-135 8,-107 8,-107 8,-101 14,-95 20,-95"/>
<text text-anchor="middle" x="405" y="-134.45" font-family="Helvetica,sans-Serif" font-size="9.00">Legend</text>
</g>
<!-- runIn_anchor -->
<g id="node1" class="node">
<title>runIn_anchor</title>
<ellipse fill="black" stroke="black" cx="73.6" cy="-21" rx="5.4" ry="5.4"/>
</g>
<!-- screening_anchor -->
<g id="node2" class="node">
<title>screening_anchor</title>
<ellipse fill="black" stroke="black" cx="225.8" cy="-21" rx="5.4" ry="5.4"/>
</g>
<!-- runIn_anchor&#45;&gt;screening_anchor -->
<g id="edge1" class="edge">
<title>runIn_anchor&#45;&gt;screening_anchor</title>
<path fill="none" stroke="#333333" stroke-width="1.8" d="M107,-21C126.82,-21 152.59,-21 174.97,-21"/>
<polygon fill="#333333" stroke="#333333" stroke-width="1.8" points="174.68,-23.8 182.68,-21 174.68,-18.2 174.68,-23.8"/>
</g>
<!-- baseline_anchor -->
<g id="node3" class="node">
<title>baseline_anchor</title>
<ellipse fill="black" stroke="black" cx="398" cy="-21" rx="5.4" ry="5.4"/>
</g>
<!-- screening_anchor&#45;&gt;baseline_anchor -->
<g id="edge2" class="edge">
<title>screening_anchor&#45;&gt;baseline_anchor</title>
<path fill="none" stroke="#333333" stroke-width="1.8" d="M267.2,-21C290.14,-21 319.13,-21 343.9,-21"/>
<polygon fill="#333333" stroke="#333333" stroke-width="1.8" points="343.88,-23.8 351.88,-21 343.88,-18.2 343.88,-23.8"/>
<text text-anchor="middle" x="311.9" y="-22.4" font-family="Helvetica,sans-Serif" font-size="8.00">1&#45;28d</text>
</g>
<!-- visit3_anchor -->
<g id="node4" class="node">
<title>visit3_anchor</title>
<ellipse fill="black" stroke="black" cx="567.2" cy="-21" rx="5.4" ry="5.4"/>
</g>
<!-- baseline_anchor&#45;&gt;visit3_anchor -->
<g id="edge3" class="edge">
<title>baseline_anchor&#45;&gt;visit3_anchor</title>
<path fill="none" stroke="#333333" stroke-width="1.8" d="M441.4,-21C465.16,-21 494.83,-21 519.28,-21"/>
<polygon fill="#333333" stroke="#333333" stroke-width="1.8" points="519.08,-23.8 527.08,-21 519.08,-18.2 519.08,-23.8"/>
<text text-anchor="middle" x="482.6" y="-22.4" font-family="Helvetica,sans-Serif" font-size="8.00">Q2W</text>
</g>
<!-- visit4_anchor -->
<g id="node5" class="node">
<title>visit4_anchor</title>
<ellipse fill="black" stroke="black" cx="736.4" cy="-21" rx="5.4" ry="5.4"/>
</g>
<!-- visit3_anchor&#45;&gt;visit4_anchor -->
<g id="edge4" class="edge">
<title>visit3_anchor&#45;&gt;visit4_anchor</title>
<path fill="none" stroke="#333333" stroke-width="1.8" d="M605.6,-21C630.08,-21 662.28,-21 688.48,-21"/>
<polygon fill="#333333" stroke="#333333" stroke-width="1.8" points="688.28,-23.8 696.28,-21 688.28,-18.2 688.28,-23.8"/>
<text text-anchor="middle" x="651.8" y="-22.4" font-family="Helvetica,sans-Serif" font-size="8.00">Q2W</text>
</g>
<!-- visit5_anchor -->
<g id="node6" class="node">
<title>visit5_anchor</title>
<ellipse fill="black" stroke="black" cx="877.4" cy="-21" rx="5.4" ry="5.4"/>
</g>
<!-- visit4_anchor&#45;&gt;visit5_anchor -->
<g id="edge5" class="edge">
<title>visit4_anchor&#45;&gt;visit5_anchor</title>
<path fill="none" stroke="#333333" stroke-width="1.8" d="M774.8,-21C791.65,-21 811.72,-21 829.56,-21"/>
<polygon fill="#333333" stroke="#333333" stroke-width="1.8" points="829.28,-23.8 837.28,-21 829.28,-18.2 829.28,-23.8"/>
<text text-anchor="middle" x="821" y="-22.4" font-family="Helvetica,sans-Serif" font-size="8.00">Q2W</text>
</g>
<!-- visit6_anchor -->
<g id="node7" class="node">
<title>visit6_anchor</title>
<ellipse fill="black" stroke="black" cx="991.2" cy="-21" rx="5.4" ry="5.4"/>
</g>
<!-- visit5_anchor&#45;&gt;visit6_anchor -->
<g id="edge6" class="edge">
<title>visit5_anchor&#45;&gt;visit6_anchor</title>
<path fill="none" stroke="#333333" stroke-width="1.8" d="M915.8,-21C924.57,-21 934.02,-21 943.15,-21"/>
<polygon fill="#333333" stroke="#333333" stroke-width="1.8" points="943.08,-23.8 951.08,-21 943.08,-18.2 943.08,-23.8"/>
<text text-anchor="middle" x="934.8" y="-22.4" font-family="Helvetica,sans-Serif" font-size="8.00">Q2W</text>
</g>
<!-- visit7_anchor -->
<g id="node8" class="node">
<title>visit7_anchor</title>
<ellipse fill="black" stroke="black" cx="1108" cy="-21" rx="5.4" ry="5.4"/>
</g>
<!-- visit6_anchor&#45;&gt;visit7_anchor -->
<g id="edge7" class="edge">
<title>visit6_anchor&#45;&gt;visit7_anchor</title>
<path fill="none" stroke="#333333" stroke-width="1.8" d="M1029.6,-21C1038.37,-21 1047.86,-21 1057.09,-21"/>
<polygon fill="#333333" stroke="#333333" stroke-width="1.8" points="1056.88,-23.8 1064.88,-21 1056.88,-18.2 1056.88,-23.8"/>
<text text-anchor="middle" x="1048.6" y="-22.4" font-family="Helvetica,sans-Serif" font-size="8.00">Q2W</text>
</g>
<!-- eot_anchor -->
<g id="node9" class="node">
<title>eot_anchor</title>
<ellipse fill="black" stroke="black" cx="1231.8" cy="-21" rx="5.4" ry="5.4"/>
</g>
<!-- visit7_anchor&#45;&gt;eot_anchor -->
<g id="edge8" class="edge">
<title>visit7_anchor&#45;&gt;eot_anchor</title>
<path fill="none" stroke="#333333" stroke-width="1.8" d="M1148.4,-21C1157.13,-21 1166.53,-21 1175.75,-21"/>
<polygon fill="#333333" stroke="#333333" stroke-width="1.8" points="1175.68,-23.8 1183.68,-21 1175.68,-18.2 1175.68,-23.8"/>
<text text-anchor="middle" x="1167.4" y="-22.4" font-family="Helvetica,sans-Serif" font-size="8.00">Q2W</text>
</g>
<!-- followUp_anchor -->
<g id="node10" class="node">
<title>followUp_anchor</title>
<ellipse fill="black" stroke="black" cx="1367.1" cy="-21" rx="5.4" ry="5.4"/>
</g>
<!-- eot_anchor&#45;&gt;followUp_anchor -->
<g id="edge9" class="edge">
<title>eot_anchor&#45;&gt;followUp_anchor</title>
<path fill="none" stroke="#333333" stroke-width="1.8" d="M1277.2,-21C1288.36,-21 1300.45,-21 1312.03,-21"/>
<polygon fill="#333333" stroke="#333333" stroke-width="1.8" points="1311.98,-23.8 1319.98,-21 1311.98,-18.2 1311.98,-23.8"/>
<text text-anchor="middle" x="1299.95" y="-22.4" font-family="Helvetica,sans-Serif" font-size="8.00">16&#45;26d</text>
</g>
<!-- leg_screen -->
<g id="node11" class="node">
<title>leg_screen</title>
<path fill="#e8f0fe" stroke="#5b7db1" d="M125.2,-121C125.2,-121 22,-121 22,-121 19,-121 16,-118 16,-115 16,-115 16,-109 16,-109 16,-106 19,-103 22,-103 22,-103 125.2,-103 125.2,-103 128.2,-103 131.2,-106 131.2,-109 131.2,-109 131.2,-115 131.2,-115 131.2,-118 128.2,-121 125.2,-121"/>
<text text-anchor="middle" x="73.6" y="-108.9" font-family="Helvetica,sans-Serif" font-size="8.00">Screening</text>
</g>
<!-- leg_base -->
<g id="node12" class="node">
<title>leg_base</title>
<path fill="#e0f7fa" stroke="#00838f" d="M277.4,-121C277.4,-121 174.2,-121 174.2,-121 171.2,-121 168.2,-118 168.2,-115 168.2,-115 168.2,-109 168.2,-109 168.2,-106 171.2,-103 174.2,-103 174.2,-103 277.4,-103 277.4,-103 280.4,-103 283.4,-106 283.4,-109 283.4,-109 283.4,-115 283.4,-115 283.4,-118 280.4,-121 277.4,-121"/>
<text text-anchor="middle" x="225.8" y="-108.9" font-family="Helvetica,sans-Serif" font-size="8.00">Baseline / Randomisation</text>
</g>
<!-- leg_screen&#45;&gt;leg_base -->
<!-- leg_treat -->
<g id="node13" class="node">
<title>leg_treat</title>
<path fill="#fff3e0" stroke="#e65100" d="M449.6,-121C449.6,-121 346.4,-121 346.4,-121 343.4,-121 340.4,-118 340.4,-115 340.4,-115 340.4,-109 340.4,-109 340.4,-106 343.4,-103 346.4,-103 346.4,-103 449.6,-103 449.6,-103 452.6,-103 455.6,-106 455.6,-109 455.6,-109 455.6,-115 455.6,-115 455.6,-118 452.6,-121 449.6,-121"/>
<text text-anchor="middle" x="398" y="-108.9" font-family="Helvetica,sans-Serif" font-size="8.00">Treatment (Q2W infusion)</text>
</g>
<!-- leg_base&#45;&gt;leg_treat -->
<!-- leg_eot -->
<g id="node14" class="node">
<title>leg_eot</title>
<path fill="#fce4ec" stroke="#c62828" d="M618.8,-121C618.8,-121 515.6,-121 515.6,-121 512.6,-121 509.6,-118 509.6,-115 509.6,-115 509.6,-109 509.6,-109 509.6,-106 512.6,-103 515.6,-103 515.6,-103 618.8,-103 618.8,-103 621.8,-103 624.8,-106 624.8,-109 624.8,-109 624.8,-115 624.8,-115 624.8,-118 621.8,-121 618.8,-121"/>
<text text-anchor="middle" x="567.2" y="-108.9" font-family="Helvetica,sans-Serif" font-size="8.00">End of Treatment</text>
</g>
<!-- leg_treat&#45;&gt;leg_eot -->
<!-- leg_fu -->
<g id="node15" class="node">
<title>leg_fu</title>
<path fill="#e8f5e9" stroke="#2e7d32" d="M788,-121C788,-121 684.8,-121 684.8,-121 681.8,-121 678.8,-118 678.8,-115 678.8,-115 678.8,-109 678.8,-109 678.8,-106 681.8,-103 684.8,-103 684.8,-103 788,-103 788,-103 791,-103 794,-106 794,-109 794,-109 794,-115 794,-115 794,-118 791,-121 788,-121"/>
<text text-anchor="middle" x="736.4" y="-108.9" font-family="Helvetica,sans-Serif" font-size="8.00">Follow&#45;up</text>
</g>
<!-- leg_eot&#45;&gt;leg_fu -->
</g>
</svg>
