<?xml version="1.0" encoding="UTF-8" standalone="no"?>
<!DOCTYPE svg PUBLIC "-//W3C//DTD SVG 1.1//EN"
 "http://www.w3.org/Graphics/SVG/1.1/DTD/svg11.dtd">
<!-- Generated by graphviz version 10.0.1 (20240210.2158)
 -->
<!-- Title: JoseTrialSoA Pages: 1 -->
<svg width="709pt" height="634pt"
 viewBox="0.00 0.00 708.86 634.14" xmlns="http://www.w3.org/2000/svg" xmlns:xlink="http://www.w3.org/1999/xlink">
<g id="graph0" class="graph" transform="scale(1 1) rotate(0) translate(4 630.14)">
<title>JoseTrialSoA</title>
<polygon fill="white" stroke="none" points="-4,4 -4,-630.14 704.86,-630.14 704.86,4 -4,4"/>
<text text-anchor="middle" x="350.43" y="-608.84" font-family="Helvetica,sans-Serif" font-size="14.00">Schedule of Activities: OurTrial (SoA)</text>
<g id="clust1" class="cluster">
<title>cluster_screening</title>
<path fill="#eef4fc" stroke="#4a90d9" d="M454.66,-505.14C454.66,-505.14 536.66,-505.14 536.66,-505.14 542.66,-505.14 548.66,-511.14 548.66,-517.14 548.66,-517.14 548.66,-583.14 548.66,-583.14 548.66,-589.14 542.66,-595.14 536.66,-595.14 536.66,-595.14 454.66,-595.14 454.66,-595.14 448.66,-595.14 442.66,-589.14 442.66,-583.14 442.66,-583.14 442.66,-517.14 442.66,-517.14 442.66,-511.14 448.66,-505.14 454.66,-505.14"/>
<text text-anchor="middle" x="495.66" y="-577.84" font-family="Helvetica,sans-Serif" font-size="14.00" fill="#4a90d9">Screening Visit</text>
<text text-anchor="middle" x="495.66" y="-562.84" font-family="Helvetica,sans-Serif" font-size="14.00" fill="#4a90d9">(one&#45;shot)</text>
</g>
<g id="clust2" class="cluster">
<title>cluster_drug</title>
<path fill="#fdf2e9" stroke="#e67e22" d="M114.66,-387.39C114.66,-387.39 225.66,-387.39 225.66,-387.39 231.66,-387.39 237.66,-393.39 237.66,-399.39 237.66,-399.39 237.66,-465.39 237.66,-465.39 237.66,-471.39 231.66,-477.39 225.66,-477.39 225.66,-477.39 114.66,-477.39 114.66,-477.39 108.66,-477.39 102.66,-471.39 102.66,-465.39 102.66,-465.39 102.66,-399.39 102.66,-399.39 102.66,-393.39 108.66,-387.39 114.66,-387.39"/>
<text text-anchor="middle" x="170.16" y="-460.09" font-family="Helvetica,sans-Serif" font-size="14.00" fill="#e67e22">Drug Administration</text>
<text text-anchor="middle" x="170.16" y="-445.09" font-family="Helvetica,sans-Serif" font-size="14.00" fill="#e67e22">(bounded × 3)</text>
</g>
<g id="clust3" class="cluster">
<title>cluster_checkup</title>
<path fill="#eafaf1" stroke="#27ae60" d="M224.66,-265.01C224.66,-265.01 358.66,-265.01 358.66,-265.01 364.66,-265.01 370.66,-271.01 370.66,-277.01 370.66,-277.01 370.66,-343.01 370.66,-343.01 370.66,-349.01 364.66,-355.01 358.66,-355.01 358.66,-355.01 224.66,-355.01 224.66,-355.01 218.66,-355.01 212.66,-349.01 212.66,-343.01 212.66,-343.01 212.66,-277.01 212.66,-277.01 212.66,-271.01 218.66,-265.01 224.66,-265.01"/>
<text text-anchor="middle" x="291.66" y="-337.71" font-family="Helvetica,sans-Serif" font-size="14.00" fill="#27ae60">Weekly Checkup</text>
<text text-anchor="middle" x="291.66" y="-322.71" font-family="Helvetica,sans-Serif" font-size="14.00" fill="#27ae60">(unbounded until death)</text>
</g>
<!-- screening -->
<g id="node1" class="node">
<title>screening</title>
<polygon fill="#4a90d9" stroke="black" points="526.91,-549.14 464.41,-549.14 464.41,-513.14 526.91,-513.14 526.91,-549.14"/>
<text text-anchor="middle" x="495.66" y="-526.69" font-family="Helvetica,sans-Serif" font-size="11.00" fill="white">screening</text>
</g>
<!-- drugDose -->
<g id="node2" class="node">
<title>drugDose</title>
<polygon fill="#e67e22" stroke="black" points="201.29,-431.39 138.04,-431.39 138.04,-395.39 201.29,-395.39 201.29,-431.39"/>
<text text-anchor="middle" x="169.66" y="-408.94" font-family="Helvetica,sans-Serif" font-size="11.00" fill="white">drugDose</text>
</g>
<!-- screening&#45;&gt;drugDose -->
<g id="edge1" class="edge">
<title>screening&#45;&gt;drugDose</title>
<path fill="none" stroke="#333333" stroke-width="2" d="M464.11,-518.94C405.71,-498.2 280.67,-453.81 213.87,-430.09"/>
<polygon fill="#333333" stroke="#333333" stroke-width="2" points="215.16,-426.83 204.57,-426.79 212.82,-433.43 215.16,-426.83"/>
<text text-anchor="middle" x="403.91" y="-486.59" font-family="Helvetica,sans-Serif" font-size="9.00">follows</text>
</g>
<!-- consent -->
<g id="node4" class="node">
<title>consent</title>
<ellipse fill="#d5e8d4" stroke="black" cx="484.66" cy="-22.63" rx="44.19" ry="22.63"/>
<text text-anchor="middle" x="484.66" y="-24.18" font-family="Helvetica,sans-Serif" font-size="11.00">consent</text>
<text text-anchor="middle" x="484.66" y="-12.18" font-family="Helvetica,sans-Serif" font-size="11.00">(initiation)</text>
</g>
<!-- screening&#45;&gt;consent -->
<g id="edge3" class="edge">
<title>screening&#45;&gt;consent</title>
<path fill="none" stroke="#4a90d9" stroke-dasharray="5,2" d="M520.93,-512.88C547.24,-492.65 584.66,-456.47 584.66,-414.39 584.66,-414.39 584.66,-414.39 584.66,-112.63 584.66,-80.59 555.65,-57.24 528.88,-42.52"/>
<polygon fill="#4a90d9" stroke="#4a90d9" points="530.63,-39.48 520.14,-37.99 527.41,-45.7 530.63,-39.48"/>
<text text-anchor="middle" x="601.91" y="-246.46" font-family="Helvetica,sans-Serif" font-size="9.00">required</text>
</g>
<!-- physicalExam -->
<g id="node5" class="node">
<title>physicalExam</title>
<ellipse fill="#d5e8d4" stroke="black" cx="484.66" cy="-113.63" rx="57.98" ry="22.63"/>
<text text-anchor="middle" x="484.66" y="-115.18" font-family="Helvetica,sans-Serif" font-size="11.00">physicalExam</text>
<text text-anchor="middle" x="484.66" y="-103.18" font-family="Helvetica,sans-Serif" font-size="11.00">(clinical)</text>
</g>
<!-- screening&#45;&gt;physicalExam -->
<g id="edge4" class="edge">
<title>screening&#45;&gt;physicalExam</title>
<path fill="none" stroke="#4a90d9" stroke-dasharray="5,2" d="M499.67,-512.78C500.82,-507.18 501.95,-500.92 502.66,-495.14 519.75,-356.9 535.15,-319.93 515.66,-182.01 513.87,-169.3 512.7,-166.07 507.66,-154.26 506.48,-151.47 505.13,-148.64 503.71,-145.84"/>
<polygon fill="#4a90d9" stroke="#4a90d9" points="506.89,-144.37 499.03,-137.27 500.75,-147.72 506.89,-144.37"/>
<text text-anchor="middle" x="541.91" y="-287.34" font-family="Helvetica,sans-Serif" font-size="9.00">required</text>
</g>
<!-- vitalSigns -->
<g id="node6" class="node">
<title>vitalSigns</title>
<ellipse fill="#d5e8d4" stroke="black" cx="43.66" cy="-204.64" rx="43.66" ry="22.63"/>
<text text-anchor="middle" x="43.66" y="-206.19" font-family="Helvetica,sans-Serif" font-size="11.00">vitalSigns</text>
<text text-anchor="middle" x="43.66" y="-194.19" font-family="Helvetica,sans-Serif" font-size="11.00">(clinical)</text>
</g>
<!-- screening&#45;&gt;vitalSigns -->
<g id="edge5" class="edge">
<title>screening&#45;&gt;vitalSigns</title>
<path fill="none" stroke="#4a90d9" stroke-dasharray="5,2" d="M464.2,-529.43C381.24,-527.03 158.77,-516.96 98.66,-477.39 53.42,-447.61 50.57,-424.98 36.16,-372.76 23.69,-327.56 29.93,-272.89 36.25,-238.68"/>
<polygon fill="#4a90d9" stroke="#4a90d9" points="39.66,-239.46 38.16,-228.97 32.79,-238.11 39.66,-239.46"/>
<text text-anchor="middle" x="53.91" y="-364.21" font-family="Helvetica,sans-Serif" font-size="9.00">required</text>
</g>
<!-- assessment -->
<g id="node7" class="node">
<title>assessment</title>
<ellipse fill="#d5e8d4" stroke="black" cx="454.66" cy="-204.64" rx="51.62" ry="22.63"/>
<text text-anchor="middle" x="454.66" y="-206.19" font-family="Helvetica,sans-Serif" font-size="11.00">assessment</text>
<text text-anchor="middle" x="454.66" y="-194.19" font-family="Helvetica,sans-Serif" font-size="11.00">(clinical)</text>
</g>
<!-- screening&#45;&gt;assessment -->
<g id="edge6" class="edge">
<title>screening&#45;&gt;assessment</title>
<path fill="none" stroke="#4a90d9" stroke-dasharray="5,2" d="M492.99,-512.7C488.57,-483.69 479.62,-423.69 473.16,-372.76 467.27,-326.26 461.49,-272.35 458,-238.61"/>
<polygon fill="#4a90d9" stroke="#4a90d9" points="461.53,-238.66 457.02,-229.07 454.56,-239.37 461.53,-238.66"/>
<text text-anchor="middle" x="489.91" y="-364.21" font-family="Helvetica,sans-Serif" font-size="9.00">required</text>
</g>
<!-- disqualify -->
<g id="node11" class="node">
<title>disqualify</title>
<ellipse fill="#e1d5e7" stroke="black" cx="656.66" cy="-413.39" rx="44.19" ry="22.63"/>
<text text-anchor="middle" x="656.66" y="-414.94" font-family="Helvetica,sans-Serif" font-size="11.00">disqualify</text>
<text text-anchor="middle" x="656.66" y="-402.94" font-family="Helvetica,sans-Serif" font-size="11.00">(initiation)</text>
</g>
<!-- screening&#45;&gt;disqualify -->
<g id="edge7" class="edge">
<title>screening&#45;&gt;disqualify</title>
<path fill="none" stroke="#4a90d9" stroke-dasharray="1,5" d="M527.32,-524.69C549.02,-519.75 577.57,-510.77 598.66,-495.14 616.12,-482.21 630.43,-462.47 640.47,-445.75"/>
<polygon fill="#4a90d9" stroke="#4a90d9" points="643.48,-447.54 645.41,-437.12 637.4,-444.06 643.48,-447.54"/>
<text text-anchor="middle" x="631.16" y="-486.59" font-family="Helvetica,sans-Serif" font-size="9.00">conditional</text>
</g>
<!-- weeklyCheckup -->
<g id="node3" class="node">
<title>weeklyCheckup</title>
<polygon fill="#27ae60" stroke="black" points="313.54,-309.01 221.79,-309.01 221.79,-273.01 313.54,-273.01 313.54,-309.01"/>
<text text-anchor="middle" x="267.66" y="-286.56" font-family="Helvetica,sans-Serif" font-size="11.00" fill="white">weeklyCheckup</text>
</g>
<!-- drugDose&#45;&gt;weeklyCheckup -->
<g id="edge2" class="edge">
<title>drugDose&#45;&gt;weeklyCheckup</title>
<path fill="none" stroke="#333333" stroke-width="2" d="M183.7,-395.14C199.86,-375.3 226.6,-342.46 245.55,-319.18"/>
<polygon fill="#333333" stroke="#333333" stroke-width="2" points="248.14,-321.54 251.74,-311.58 242.71,-317.12 248.14,-321.54"/>
<text text-anchor="middle" x="220.91" y="-364.21" font-family="Helvetica,sans-Serif" font-size="9.00">follows</text>
</g>
<!-- drugDose&#45;&gt;vitalSigns -->
<g id="edge9" class="edge">
<title>drugDose&#45;&gt;vitalSigns</title>
<path fill="none" stroke="#e67e22" stroke-dasharray="5,2" d="M137.61,-402.89C114.28,-394.26 83.95,-379.11 67.16,-355.01 43.25,-320.67 40.01,-271.17 40.96,-238.71"/>
<polygon fill="#e67e22" stroke="#e67e22" points="44.44,-239.25 41.41,-229.1 37.45,-238.92 44.44,-239.25"/>
<text text-anchor="middle" x="84.91" y="-287.34" font-family="Helvetica,sans-Serif" font-size="9.00">required</text>
</g>
<!-- drugAdmin -->
<g id="node8" class="node">
<title>drugAdmin</title>
<ellipse fill="#fff2cc" stroke="black" cx="233.66" cy="-113.63" rx="55.86" ry="22.63"/>
<text text-anchor="middle" x="233.66" y="-115.18" font-family="Helvetica,sans-Serif" font-size="11.00">drugAdmin</text>
<text text-anchor="middle" x="233.66" y="-103.18" font-family="Helvetica,sans-Serif" font-size="11.00">(intervention)</text>
</g>
<!-- drugDose&#45;&gt;drugAdmin -->
<g id="edge8" class="edge">
<title>drugDose&#45;&gt;drugAdmin</title>
<path fill="none" stroke="#e67e22" stroke-dasharray="5,2" d="M160.25,-395.01C139.9,-354.92 96.64,-253.89 134.66,-182.01 145.43,-161.67 165.39,-146.32 184.59,-135.45"/>
<polygon fill="#e67e22" stroke="#e67e22" points="185.99,-138.67 193.17,-130.88 182.7,-132.49 185.99,-138.67"/>
<text text-anchor="middle" x="136.91" y="-246.46" font-family="Helvetica,sans-Serif" font-size="9.00">required</text>
</g>
<!-- aeCollection -->
<g id="node9" class="node">
<title>aeCollection</title>
<ellipse fill="#f8cecc" stroke="black" cx="196.66" cy="-204.64" rx="53.21" ry="22.63"/>
<text text-anchor="middle" x="196.66" y="-206.19" font-family="Helvetica,sans-Serif" font-size="11.00">aeCollection</text>
<text text-anchor="middle" x="196.66" y="-194.19" font-family="Helvetica,sans-Serif" font-size="11.00">(safety)</text>
</g>
<!-- drugDose&#45;&gt;aeCollection -->
<g id="edge10" class="edge">
<title>drugDose&#45;&gt;aeCollection</title>
<path fill="none" stroke="#e67e22" stroke-dasharray="5,2" d="M168.35,-394.94C166.67,-367.13 164.97,-311.21 174.16,-265.01 175.98,-255.89 179.04,-246.33 182.33,-237.62"/>
<polygon fill="#e67e22" stroke="#e67e22" points="185.5,-239.11 185.98,-228.52 179.01,-236.5 185.5,-239.11"/>
<text text-anchor="middle" x="191.91" y="-287.34" font-family="Helvetica,sans-Serif" font-size="9.00">required</text>
</g>
<!-- weeklyCheckup&#45;&gt;vitalSigns -->
<g id="edge11" class="edge">
<title>weeklyCheckup&#45;&gt;vitalSigns</title>
<path fill="none" stroke="#27ae60" stroke-dasharray="5,2" d="M227.48,-272.64C221.2,-270.02 214.78,-267.41 208.66,-265.01 169.06,-249.51 123.54,-233.24 90.36,-221.67"/>
<polygon fill="#27ae60" stroke="#27ae60" points="91.63,-218.4 81.03,-218.42 89.33,-225.01 91.63,-218.4"/>
<text text-anchor="middle" x="199.91" y="-246.46" font-family="Helvetica,sans-Serif" font-size="9.00">required</text>
</g>
<!-- weeklyCheckup&#45;&gt;assessment -->
<g id="edge12" class="edge">
<title>weeklyCheckup&#45;&gt;assessment</title>
<path fill="none" stroke="#27ae60" stroke-dasharray="5,2" d="M308.55,-272.61C321.42,-267.06 335.67,-260.85 348.66,-255.01 368.89,-245.94 391.14,-235.62 410.01,-226.78"/>
<polygon fill="#27ae60" stroke="#27ae60" points="411.47,-229.96 419.03,-222.54 408.5,-223.62 411.47,-229.96"/>
<text text-anchor="middle" x="385.91" y="-246.46" font-family="Helvetica,sans-Serif" font-size="9.00">required</text>
</g>
<!-- weeklyCheckup&#45;&gt;aeCollection -->
<g id="edge13" class="edge">
<title>weeklyCheckup&#45;&gt;aeCollection</title>
<path fill="none" stroke="#27ae60" stroke-dasharray="5,2" d="M260.39,-272.93C256.21,-264.17 250.44,-253.62 243.66,-245.26 239.98,-240.72 235.71,-236.3 231.29,-232.17"/>
<polygon fill="#27ae60" stroke="#27ae60" points="233.65,-229.58 223.83,-225.6 229.02,-234.84 233.65,-229.58"/>
<text text-anchor="middle" x="266.91" y="-246.46" font-family="Helvetica,sans-Serif" font-size="9.00">required</text>
</g>
<!-- survivalCheck -->
<g id="node10" class="node">
<title>survivalCheck</title>
<ellipse fill="#f8cecc" stroke="black" cx="326.66" cy="-204.64" rx="58.51" ry="22.63"/>
<text text-anchor="middle" x="326.66" y="-206.19" font-family="Helvetica,sans-Serif" font-size="11.00">survivalCheck</text>
<text text-anchor="middle" x="326.66" y="-194.19" font-family="Helvetica,sans-Serif" font-size="11.00">(safety)</text>
</g>
<!-- weeklyCheckup&#45;&gt;survivalCheck -->
<g id="edge14" class="edge">
<title>weeklyCheckup&#45;&gt;survivalCheck</title>
<path fill="none" stroke="#27ae60" stroke-dasharray="5,2" d="M288.74,-272.78C294.39,-267.48 300.17,-261.36 304.66,-255.01 308.39,-249.75 311.71,-243.75 314.56,-237.79"/>
<polygon fill="#27ae60" stroke="#27ae60" points="317.75,-239.23 318.57,-228.66 311.34,-236.41 317.75,-239.23"/>
<text text-anchor="middle" x="326.91" y="-246.46" font-family="Helvetica,sans-Serif" font-size="9.00">required</text>
</g>
<!-- physicalExam&#45;&gt;consent -->
<g id="edge15" class="edge">
<title>physicalExam&#45;&gt;consent</title>
<path fill="none" stroke="#c0392b" stroke-width="2" d="M484.66,-90.63C484.66,-80.36 484.66,-67.92 484.66,-56.56"/>
<polygon fill="#c0392b" stroke="#c0392b" stroke-width="2" points="484.66,-48.12 489.16,-58.12 485.16,-50.68 485.16,-58.12 484.66,-58.12 484.16,-58.12 484.16,-50.68 480.16,-58.12 484.66,-48.12"/>
<text text-anchor="middle" x="501.54" y="-64.45" font-family="Helvetica,sans-Serif" font-size="9.00">requires</text>
</g>
<!-- assessment&#45;&gt;physicalExam -->
<g id="edge17" class="edge">
<title>assessment&#45;&gt;physicalExam</title>
<path fill="none" stroke="#c0392b" stroke-width="2" d="M461.93,-182.09C465.51,-171.46 469.91,-158.41 473.88,-146.64"/>
<polygon fill="#c0392b" stroke="#c0392b" stroke-width="2" points="476.59,-138.6 477.66,-149.51 476.24,-141.19 473.87,-148.23 473.39,-148.07 472.92,-147.91 475.29,-140.87 469.13,-146.64 476.59,-138.6"/>
<text text-anchor="middle" x="486.54" y="-155.46" font-family="Helvetica,sans-Serif" font-size="9.00">requires</text>
</g>
<!-- drugAdmin&#45;&gt;consent -->
<g id="edge16" class="edge">
<title>drugAdmin&#45;&gt;consent</title>
<path fill="none" stroke="#c0392b" stroke-width="2" d="M274.83,-98.03C319.73,-82.11 391.44,-56.68 438.29,-40.07"/>
<polygon fill="#c0392b" stroke="#c0392b" stroke-width="2" points="446.47,-37.17 438.55,-44.75 444.22,-38.5 437.21,-40.98 437.04,-40.51 436.88,-40.04 443.89,-37.56 435.54,-36.27 446.47,-37.17"/>
<text text-anchor="middle" x="383.54" y="-64.45" font-family="Helvetica,sans-Serif" font-size="9.00">requires</text>
</g>
</g>
</svg>
