<?xml version="1.0" encoding="UTF-8" standalone="no"?>
<!DOCTYPE svg PUBLIC "-//W3C//DTD SVG 1.1//EN"
 "http://www.w3.org/Graphics/SVG/1.1/DTD/svg11.dtd">
<!-- Generated by graphviz version 10.0.1 (20240210.2158)
 -->
<!-- Title: JoseTrialCompiled Pages: 1 -->
<svg width="560pt" height="1606pt"
 viewBox="0.00 0.00 560.32 1606.23" xmlns="http://www.w3.org/2000/svg" xmlns:xlink="http://www.w3.org/1999/xlink">
<g id="graph0" class="graph" transform="scale(1 1) rotate(0) translate(4 1602.23)">
<title>JoseTrialCompiled</title>
<polygon fill="white" stroke="none" points="-4,4 -4,-1602.23 556.32,-1602.23 556.32,4 -4,4"/>
<text text-anchor="middle" x="276.16" y="-1580.93" font-family="Helvetica,sans-Serif" font-size="14.00">JoseTrial Compiled Pipeline (type&#45;erased)</text>
<g id="clust1" class="cluster">
<title>cluster_trial</title>
<path fill="#f5eef8" stroke="#8e44ad" d="M20,-80.32C20,-80.32 414,-80.32 414,-80.32 420,-80.32 426,-86.32 426,-92.32 426,-92.32 426,-1482.91 426,-1482.91 426,-1488.91 420,-1494.91 414,-1494.91 414,-1494.91 20,-1494.91 20,-1494.91 14,-1494.91 8,-1488.91 8,-1482.91 8,-1482.91 8,-92.32 8,-92.32 8,-86.32 14,-80.32 20,-80.32"/>
<text text-anchor="middle" x="217" y="-1477.61" font-family="Helvetica,sans-Serif" font-size="14.00" fill="#8e44ad">scope: trial (OurTrial)</text>
</g>
<g id="clust2" class="cluster">
<title>cluster_clinic</title>
<path fill="#ebf5fb" stroke="#2980b9" d="M28,-88.32C28,-88.32 406,-88.32 406,-88.32 412,-88.32 418,-94.32 418,-100.32 418,-100.32 418,-1451.91 418,-1451.91 418,-1457.91 412,-1463.91 406,-1463.91 406,-1463.91 28,-1463.91 28,-1463.91 22,-1463.91 16,-1457.91 16,-1451.91 16,-1451.91 16,-100.32 16,-100.32 16,-94.32 22,-88.32 28,-88.32"/>
<text text-anchor="middle" x="217" y="-1446.61" font-family="Helvetica,sans-Serif" font-size="14.00" fill="#2980b9">scope: clinic (ValClinic, Allen)</text>
<text text-anchor="middle" x="217" y="-1431.61" font-family="Helvetica,sans-Serif" font-size="14.00" fill="#2980b9">obligations: ClinicCityEvidence, SharedLangEvidence,</text>
<text text-anchor="middle" x="217" y="-1416.61" font-family="Helvetica,sans-Serif" font-size="14.00" fill="#2980b9">assigned, trialApproves</text>
</g>
<g id="clust3" class="cluster">
<title>cluster_room</title>
<path fill="#e8f8f5" stroke="#16a085" d="M36,-96.32C36,-96.32 398,-96.32 398,-96.32 404,-96.32 410,-102.32 410,-108.32 410,-108.32 410,-1390.91 410,-1390.91 410,-1396.91 404,-1402.91 398,-1402.91 398,-1402.91 36,-1402.91 36,-1402.91 30,-1402.91 24,-1396.91 24,-1390.91 24,-1390.91 24,-108.32 24,-108.32 24,-102.32 30,-96.32 36,-96.32"/>
<text text-anchor="middle" x="217" y="-1385.61" font-family="Helvetica,sans-Serif" font-size="14.00" fill="#16a085">scope: room (Room3, ExamBed, BPMonitor, VO2Equipment)</text>
<text text-anchor="middle" x="217" y="-1370.61" font-family="Helvetica,sans-Serif" font-size="14.00" fill="#16a085">obligations: examBedQual, bpMonitorQual, vo2Qual</text>
</g>
<g id="clust4" class="cluster">
<title>cluster_drug1</title>
<path fill="#fdf2e9" stroke="#e67e22" d="M64,-855.66C64,-855.66 221,-855.66 221,-855.66 227,-855.66 233,-861.66 233,-867.66 233,-867.66 233,-1046.91 233,-1046.91 233,-1052.91 227,-1058.91 221,-1058.91 221,-1058.91 64,-1058.91 64,-1058.91 58,-1058.91 52,-1052.91 52,-1046.91 52,-1046.91 52,-867.66 52,-867.66 52,-861.66 58,-855.66 64,-855.66"/>
<text text-anchor="middle" x="142.5" y="-1041.61" font-family="Helvetica,sans-Serif" font-size="14.00" fill="#e67e22">scope: drug&#45;dose (1/3)</text>
</g>
<g id="clust5" class="cluster">
<title>cluster_dose1</title>
<path fill="#fdf2e9" stroke="#d35400" d="M72,-863.66C72,-863.66 213,-863.66 213,-863.66 219,-863.66 225,-869.66 225,-875.66 225,-875.66 225,-1015.91 225,-1015.91 225,-1021.91 219,-1027.91 213,-1027.91 213,-1027.91 72,-1027.91 72,-1027.91 66,-1027.91 60,-1021.91 60,-1015.91 60,-1015.91 60,-875.66 60,-875.66 60,-869.66 66,-863.66 72,-863.66"/>
<text text-anchor="middle" x="142.5" y="-1010.61" font-family="Helvetica,sans-Serif" font-size="14.00" fill="#d35400">scope: dose&#45;visit</text>
<text text-anchor="middle" x="142.5" y="-995.61" font-family="Helvetica,sans-Serif" font-size="14.00" fill="#d35400">constraint: callConfirmed</text>
</g>
<g id="clust6" class="cluster">
<title>cluster_drug2</title>
<path fill="#fdf2e9" stroke="#e67e22" d="M101,-623.32C101,-623.32 258,-623.32 258,-623.32 264,-623.32 270,-629.32 270,-635.32 270,-635.32 270,-818.66 270,-818.66 270,-824.66 264,-830.66 258,-830.66 258,-830.66 101,-830.66 101,-830.66 95,-830.66 89,-824.66 89,-818.66 89,-818.66 89,-635.32 89,-635.32 89,-629.32 95,-623.32 101,-623.32"/>
<text text-anchor="middle" x="179.5" y="-813.36" font-family="Helvetica,sans-Serif" font-size="14.00" fill="#e67e22">scope: drug&#45;dose (2/3)</text>
</g>
<g id="clust7" class="cluster">
<title>cluster_dose2</title>
<path fill="#fdf2e9" stroke="#d35400" d="M109,-631.32C109,-631.32 250,-631.32 250,-631.32 256,-631.32 262,-637.32 262,-643.32 262,-643.32 262,-787.66 262,-787.66 262,-793.66 256,-799.66 250,-799.66 250,-799.66 109,-799.66 109,-799.66 103,-799.66 97,-793.66 97,-787.66 97,-787.66 97,-643.32 97,-643.32 97,-637.32 103,-631.32 109,-631.32"/>
<text text-anchor="middle" x="179.5" y="-782.36" font-family="Helvetica,sans-Serif" font-size="14.00" fill="#d35400">scope: dose&#45;visit</text>
<text text-anchor="middle" x="179.5" y="-767.36" font-family="Helvetica,sans-Serif" font-size="14.00" fill="#d35400">constraint: callConfirmed</text>
</g>
<g id="clust8" class="cluster">
<title>cluster_drug3</title>
<path fill="#fdf2e9" stroke="#e67e22" d="M101,-396.32C101,-396.32 258,-396.32 258,-396.32 264,-396.32 270,-402.32 270,-408.32 270,-408.32 270,-586.32 270,-586.32 270,-592.32 264,-598.32 258,-598.32 258,-598.32 101,-598.32 101,-598.32 95,-598.32 89,-592.32 89,-586.32 89,-586.32 89,-408.32 89,-408.32 89,-402.32 95,-396.32 101,-396.32"/>
<text text-anchor="middle" x="179.5" y="-581.02" font-family="Helvetica,sans-Serif" font-size="14.00" fill="#e67e22">scope: drug&#45;dose (3/3)</text>
</g>
<g id="clust9" class="cluster">
<title>cluster_dose3</title>
<path fill="#fdf2e9" stroke="#d35400" d="M109,-404.32C109,-404.32 250,-404.32 250,-404.32 256,-404.32 262,-410.32 262,-416.32 262,-416.32 262,-555.32 262,-555.32 262,-561.32 256,-567.32 250,-567.32 250,-567.32 109,-567.32 109,-567.32 103,-567.32 97,-561.32 97,-555.32 97,-555.32 97,-416.32 97,-416.32 97,-410.32 103,-404.32 109,-404.32"/>
<text text-anchor="middle" x="179.5" y="-550.02" font-family="Helvetica,sans-Serif" font-size="14.00" fill="#d35400">scope: dose&#45;visit</text>
<text text-anchor="middle" x="179.5" y="-535.02" font-family="Helvetica,sans-Serif" font-size="14.00" fill="#d35400">constraint: callConfirmed</text>
</g>
<g id="clust10" class="cluster">
<title>cluster_checkup</title>
<path fill="#eafaf1" stroke="#27ae60" d="M78,-104.32C78,-104.32 289,-104.32 289,-104.32 295,-104.32 301,-110.32 301,-116.32 301,-116.32 301,-359.32 301,-359.32 301,-365.32 295,-371.32 289,-371.32 289,-371.32 78,-371.32 78,-371.32 72,-371.32 66,-365.32 66,-359.32 66,-359.32 66,-116.32 66,-116.32 66,-110.32 72,-104.32 78,-104.32"/>
<text text-anchor="middle" x="183.5" y="-354.02" font-family="Helvetica,sans-Serif" font-size="14.00" fill="#27ae60">scope: weekly&#45;checkup (unbounded)</text>
</g>
<g id="clust11" class="cluster">
<title>cluster_checkup_visit</title>
<path fill="#eafaf1" stroke="#1e8449" d="M113,-177.32C113,-177.32 254,-177.32 254,-177.32 260,-177.32 266,-183.32 266,-189.32 266,-189.32 266,-328.32 266,-328.32 266,-334.32 260,-340.32 254,-340.32 254,-340.32 113,-340.32 113,-340.32 107,-340.32 101,-334.32 101,-328.32 101,-328.32 101,-189.32 101,-189.32 101,-183.32 107,-177.32 113,-177.32"/>
<text text-anchor="middle" x="183.5" y="-323.02" font-family="Helvetica,sans-Serif" font-size="14.00" fill="#1e8449">scope: checkup&#45;visit</text>
<text text-anchor="middle" x="183.5" y="-308.02" font-family="Helvetica,sans-Serif" font-size="14.00" fill="#1e8449">constraint: callConfirmed</text>
</g>
<!-- patient -->
<g id="node1" class="node">
<title>patient</title>
<polygon fill="#dae8fc" stroke="black" points="350.86,-1556.81 310,-1575.23 269.14,-1556.81 269.18,-1527 350.82,-1527 350.86,-1556.81"/>
<text text-anchor="middle" x="310" y="-1550.32" font-family="Helvetica,sans-Serif" font-size="10.00">Patient</text>
<text text-anchor="middle" x="310" y="-1539.07" font-family="Helvetica,sans-Serif" font-size="10.00">&quot;Jose&quot;</text>
</g>
<!-- branch1 -->
<g id="node2" class="node">
<title>branch1</title>
<polygon fill="#f8d7da" stroke="black" points="310,-1356.91 272.14,-1338.91 310,-1320.91 347.86,-1338.91 310,-1356.91"/>
<text text-anchor="middle" x="310" y="-1335.03" font-family="Helvetica,sans-Serif" font-size="10.00">branch</text>
</g>
<!-- patient&#45;&gt;branch1 -->
<g id="edge1" class="edge">
<title>patient&#45;&gt;branch1</title>
<path fill="none" stroke="black" d="M310,-1526.51C310,-1489.16 310,-1411.26 310,-1368.88"/>
<polygon fill="black" stroke="black" points="313.5,-1368.95 310,-1358.95 306.5,-1368.95 313.5,-1368.95"/>
</g>
<!-- nq1 -->
<g id="node3" class="node">
<title>nq1</title>
<path fill="#f5b7b1" stroke="black" d="M389.88,-1275.91C389.88,-1275.91 322.12,-1275.91 322.12,-1275.91 316.12,-1275.91 310.12,-1269.91 310.12,-1263.91 310.12,-1263.91 310.12,-1251.91 310.12,-1251.91 310.12,-1245.91 316.12,-1239.91 322.12,-1239.91 322.12,-1239.91 389.88,-1239.91 389.88,-1239.91 395.88,-1239.91 401.88,-1245.91 401.88,-1251.91 401.88,-1251.91 401.88,-1263.91 401.88,-1263.91 401.88,-1269.91 395.88,-1275.91 389.88,-1275.91"/>
<text text-anchor="middle" x="356" y="-1259.66" font-family="Helvetica,sans-Serif" font-size="10.00">disqualify</text>
<text text-anchor="middle" x="356" y="-1248.41" font-family="Helvetica,sans-Serif" font-size="10.00">(consent refused)</text>
</g>
<!-- branch1&#45;&gt;nq1 -->
<g id="edge2" class="edge">
<title>branch1&#45;&gt;nq1</title>
<path fill="none" stroke="black" d="M317.8,-1324.51C323.91,-1314.02 332.61,-1299.08 340.16,-1286.11"/>
<polygon fill="black" stroke="black" points="343.13,-1287.97 345.14,-1277.56 337.08,-1284.44 343.13,-1287.97"/>
<text text-anchor="middle" x="345.25" y="-1295.31" font-family="Helvetica,sans-Serif" font-size="8.00" fill="#c0392b">refuse</text>
</g>
<!-- s_consent -->
<g id="node4" class="node">
<title>s_consent</title>
<path fill="#d5e8d4" stroke="black" d="M280,-1275.91C280,-1275.91 250,-1275.91 250,-1275.91 244,-1275.91 238,-1269.91 238,-1263.91 238,-1263.91 238,-1251.91 238,-1251.91 238,-1245.91 244,-1239.91 250,-1239.91 250,-1239.91 280,-1239.91 280,-1239.91 286,-1239.91 292,-1245.91 292,-1251.91 292,-1251.91 292,-1263.91 292,-1263.91 292,-1269.91 286,-1275.91 280,-1275.91"/>
<text text-anchor="middle" x="265" y="-1254.03" font-family="Helvetica,sans-Serif" font-size="10.00">consent</text>
</g>
<!-- branch1&#45;&gt;s_consent -->
<g id="edge3" class="edge">
<title>branch1&#45;&gt;s_consent</title>
<path fill="none" stroke="black" d="M302.16,-1324.15C296.2,-1313.68 287.81,-1298.95 280.51,-1286.13"/>
<polygon fill="black" stroke="black" points="283.69,-1284.65 275.7,-1277.7 277.61,-1288.12 283.69,-1284.65"/>
<text text-anchor="middle" x="292.12" y="-1295.31" font-family="Helvetica,sans-Serif" font-size="8.00" fill="#27ae60">ok</text>
</g>
<!-- join1 -->
<g id="node8" class="node">
<title>join1</title>
<polygon fill="#fadbd8" stroke="black" points="358,-870.41 399.68,-899.28 316.32,-899.28 358,-870.41"/>
<text text-anchor="middle" x="358" y="-885.78" font-family="Helvetica,sans-Serif" font-size="10.00">join</text>
</g>
<!-- nq1&#45;&gt;join1 -->
<g id="edge16" class="edge">
<title>nq1&#45;&gt;join1</title>
<path fill="none" stroke="black" d="M356.76,-1239.7C357.32,-1225.32 358,-1204.28 358,-1185.91 358,-1185.91 358,-1185.91 358,-962.91 358,-945.25 358,-925.17 358,-910.67"/>
<polygon fill="black" stroke="black" points="361.5,-911.07 358,-901.07 354.5,-911.07 361.5,-911.07"/>
</g>
<!-- s_assessment -->
<g id="node5" class="node">
<title>s_assessment</title>
<path fill="#d5e8d4" stroke="black" d="M287.62,-1202.91C287.62,-1202.91 242.38,-1202.91 242.38,-1202.91 236.38,-1202.91 230.38,-1196.91 230.38,-1190.91 230.38,-1190.91 230.38,-1178.91 230.38,-1178.91 230.38,-1172.91 236.38,-1166.91 242.38,-1166.91 242.38,-1166.91 287.62,-1166.91 287.62,-1166.91 293.62,-1166.91 299.62,-1172.91 299.62,-1178.91 299.62,-1178.91 299.62,-1190.91 299.62,-1190.91 299.62,-1196.91 293.62,-1202.91 287.62,-1202.91"/>
<text text-anchor="middle" x="265" y="-1181.03" font-family="Helvetica,sans-Serif" font-size="10.00">assessment</text>
</g>
<!-- s_consent&#45;&gt;s_assessment -->
<g id="edge4" class="edge">
<title>s_consent&#45;&gt;s_assessment</title>
<path fill="none" stroke="black" d="M265,-1239.72C265,-1232.14 265,-1223.01 265,-1214.45"/>
<polygon fill="black" stroke="black" points="268.5,-1214.45 265,-1204.45 261.5,-1214.45 268.5,-1214.45"/>
</g>
<!-- branch2 -->
<g id="node6" class="node">
<title>branch2</title>
<polygon fill="#f8d7da" stroke="black" points="265,-1129.91 227.14,-1111.91 265,-1093.91 302.86,-1111.91 265,-1129.91"/>
<text text-anchor="middle" x="265" y="-1108.03" font-family="Helvetica,sans-Serif" font-size="10.00">branch</text>
</g>
<!-- s_assessment&#45;&gt;branch2 -->
<g id="edge5" class="edge">
<title>s_assessment&#45;&gt;branch2</title>
<path fill="none" stroke="black" d="M265,-1166.72C265,-1159.25 265,-1150.28 265,-1141.83"/>
<polygon fill="black" stroke="black" points="268.5,-1141.95 265,-1131.95 261.5,-1141.95 268.5,-1141.95"/>
</g>
<!-- nq2 -->
<g id="node7" class="node">
<title>nq2</title>
<path fill="#f5b7b1" stroke="black" d="M326.5,-981.91C326.5,-981.91 253.5,-981.91 253.5,-981.91 247.5,-981.91 241.5,-975.91 241.5,-969.91 241.5,-969.91 241.5,-957.91 241.5,-957.91 241.5,-951.91 247.5,-945.91 253.5,-945.91 253.5,-945.91 326.5,-945.91 326.5,-945.91 332.5,-945.91 338.5,-951.91 338.5,-957.91 338.5,-957.91 338.5,-969.91 338.5,-969.91 338.5,-975.91 332.5,-981.91 326.5,-981.91"/>
<text text-anchor="middle" x="290" y="-965.66" font-family="Helvetica,sans-Serif" font-size="10.00">disqualify</text>
<text text-anchor="middle" x="290" y="-954.41" font-family="Helvetica,sans-Serif" font-size="10.00">(post&#45;assessment)</text>
</g>
<!-- branch2&#45;&gt;nq2 -->
<g id="edge6" class="edge">
<title>branch2&#45;&gt;nq2</title>
<path fill="none" stroke="black" d="M267.77,-1094.73C271.97,-1070.21 280,-1023.33 285.17,-993.12"/>
<polygon fill="black" stroke="black" points="288.57,-994.01 286.81,-983.56 281.67,-992.82 288.57,-994.01"/>
<text text-anchor="middle" x="278" y="-1068.31" font-family="Helvetica,sans-Serif" font-size="8.00" fill="#c0392b">NQ</text>
</g>
<!-- d1_call -->
<g id="node9" class="node">
<title>d1_call</title>
<polygon fill="#ffffcc" stroke="black" points="210.62,-981.91 141.38,-981.91 141.38,-945.91 216.62,-945.91 216.62,-975.91 210.62,-981.91"/>
<polyline fill="none" stroke="black" points="210.62,-981.91 210.62,-975.91"/>
<polyline fill="none" stroke="black" points="216.62,-975.91 210.62,-975.91"/>
<text text-anchor="middle" x="179" y="-960.23" font-family="Helvetica,sans-Serif" font-size="9.00">CallConfirmed</text>
</g>
<!-- branch2&#45;&gt;d1_call -->
<g id="edge7" class="edge">
<title>branch2&#45;&gt;d1_call</title>
<path fill="none" stroke="black" d="M253.47,-1099.27C245.94,-1091.32 235.95,-1080.14 227.44,-1068.4"/>
<polygon fill="black" stroke="black" points="230.36,-1066.47 221.85,-1060.16 224.57,-1070.4 230.36,-1066.47"/>
<text text-anchor="middle" x="243.25" y="-1068.31" font-family="Helvetica,sans-Serif" font-size="8.00" fill="#27ae60">qualify</text>
</g>
<!-- nq2&#45;&gt;join1 -->
<g id="edge17" class="edge">
<title>nq2&#45;&gt;join1</title>
<path fill="none" stroke="black" d="M306.46,-945.42C317.25,-933.95 331.29,-919.03 341.99,-907.67"/>
<polygon fill="black" stroke="black" points="344.39,-910.23 348.7,-900.54 339.29,-905.43 344.39,-910.23"/>
</g>
<!-- nq_out -->
<g id="node18" class="node">
<title>nq_out</title>
<polygon fill="#f5b7b1" stroke="black" points="552.32,-725.99 552.32,-745.33 517.57,-759 468.43,-759 433.68,-745.33 433.68,-725.99 468.43,-712.32 517.57,-712.32 552.32,-725.99"/>
<text text-anchor="middle" x="493" y="-737.41" font-family="Helvetica,sans-Serif" font-size="10.00">NonQualifying</text>
<text text-anchor="middle" x="493" y="-726.16" font-family="Helvetica,sans-Serif" font-size="10.00">&quot;Jose&quot;</text>
</g>
<!-- join1&#45;&gt;nq_out -->
<g id="edge18" class="edge">
<title>join1&#45;&gt;nq_out</title>
<path fill="none" stroke="#c0392b" stroke-dasharray="5,2" d="M368.15,-877.23C388.61,-854.19 435.44,-801.47 465.57,-767.54"/>
<polygon fill="#c0392b" stroke="#c0392b" points="467.82,-770.28 471.84,-760.48 462.58,-765.64 467.82,-770.28"/>
</g>
<!-- d1_admin -->
<g id="node10" class="node">
<title>d1_admin</title>
<path fill="#fff2cc" stroke="black" d="M198.25,-907.66C198.25,-907.66 159.75,-907.66 159.75,-907.66 153.75,-907.66 147.75,-901.66 147.75,-895.66 147.75,-895.66 147.75,-883.66 147.75,-883.66 147.75,-877.66 153.75,-871.66 159.75,-871.66 159.75,-871.66 198.25,-871.66 198.25,-871.66 204.25,-871.66 210.25,-877.66 210.25,-883.66 210.25,-883.66 210.25,-895.66 210.25,-895.66 210.25,-901.66 204.25,-907.66 198.25,-907.66"/>
<text text-anchor="middle" x="179" y="-885.78" font-family="Helvetica,sans-Serif" font-size="10.00">drugAdmin</text>
</g>
<!-- d1_call&#45;&gt;d1_admin -->
<g id="edge8" class="edge">
<title>d1_call&#45;&gt;d1_admin</title>
<path fill="none" stroke="black" d="M179,-945.42C179,-937.61 179,-928.2 179,-919.4"/>
<polygon fill="black" stroke="black" points="182.5,-919.5 179,-909.5 175.5,-919.5 182.5,-919.5"/>
</g>
<!-- d2_call -->
<g id="node11" class="node">
<title>d2_call</title>
<polygon fill="#ffffcc" stroke="black" points="210.62,-753.66 141.38,-753.66 141.38,-717.66 216.62,-717.66 216.62,-747.66 210.62,-753.66"/>
<polyline fill="none" stroke="black" points="210.62,-753.66 210.62,-747.66"/>
<polyline fill="none" stroke="black" points="216.62,-747.66 210.62,-747.66"/>
<text text-anchor="middle" x="179" y="-731.98" font-family="Helvetica,sans-Serif" font-size="9.00">CallConfirmed</text>
</g>
<!-- d1_admin&#45;&gt;d2_call -->
<g id="edge9" class="edge">
<title>d1_admin&#45;&gt;d2_call</title>
<path fill="none" stroke="black" d="M179,-871.22C179,-863.28 179,-853.16 179,-842.05"/>
<polygon fill="black" stroke="black" points="182.5,-842.17 179,-832.17 175.5,-842.17 182.5,-842.17"/>
<text text-anchor="middle" x="185.38" y="-840.06" font-family="Helvetica,sans-Serif" font-size="8.00" fill="#666666">seq</text>
</g>
<!-- d2_admin -->
<g id="node12" class="node">
<title>d2_admin</title>
<path fill="#fff2cc" stroke="black" d="M198.25,-675.32C198.25,-675.32 159.75,-675.32 159.75,-675.32 153.75,-675.32 147.75,-669.32 147.75,-663.32 147.75,-663.32 147.75,-651.32 147.75,-651.32 147.75,-645.32 153.75,-639.32 159.75,-639.32 159.75,-639.32 198.25,-639.32 198.25,-639.32 204.25,-639.32 210.25,-645.32 210.25,-651.32 210.25,-651.32 210.25,-663.32 210.25,-663.32 210.25,-669.32 204.25,-675.32 198.25,-675.32"/>
<text text-anchor="middle" x="179" y="-653.44" font-family="Helvetica,sans-Serif" font-size="10.00">drugAdmin</text>
</g>
<!-- d2_call&#45;&gt;d2_admin -->
<g id="edge10" class="edge">
<title>d2_call&#45;&gt;d2_admin</title>
<path fill="none" stroke="black" d="M179,-717.34C179,-708.36 179,-697.16 179,-686.93"/>
<polygon fill="black" stroke="black" points="182.5,-687.08 179,-677.08 175.5,-687.08 182.5,-687.08"/>
</g>
<!-- d3_call -->
<g id="node13" class="node">
<title>d3_call</title>
<polygon fill="#ffffcc" stroke="black" points="210.62,-521.32 141.38,-521.32 141.38,-485.32 216.62,-485.32 216.62,-515.32 210.62,-521.32"/>
<polyline fill="none" stroke="black" points="210.62,-521.32 210.62,-515.32"/>
<polyline fill="none" stroke="black" points="216.62,-515.32 210.62,-515.32"/>
<text text-anchor="middle" x="179" y="-499.64" font-family="Helvetica,sans-Serif" font-size="9.00">CallConfirmed</text>
</g>
<!-- d2_admin&#45;&gt;d3_call -->
<g id="edge11" class="edge">
<title>d2_admin&#45;&gt;d3_call</title>
<path fill="none" stroke="black" d="M179,-638.88C179,-630.93 179,-620.81 179,-609.71"/>
<polygon fill="black" stroke="black" points="182.5,-609.83 179,-599.83 175.5,-609.83 182.5,-609.83"/>
<text text-anchor="middle" x="185.38" y="-607.72" font-family="Helvetica,sans-Serif" font-size="8.00" fill="#666666">seq</text>
</g>
<!-- d3_admin -->
<g id="node14" class="node">
<title>d3_admin</title>
<path fill="#fff2cc" stroke="black" d="M198.25,-448.32C198.25,-448.32 159.75,-448.32 159.75,-448.32 153.75,-448.32 147.75,-442.32 147.75,-436.32 147.75,-436.32 147.75,-424.32 147.75,-424.32 147.75,-418.32 153.75,-412.32 159.75,-412.32 159.75,-412.32 198.25,-412.32 198.25,-412.32 204.25,-412.32 210.25,-418.32 210.25,-424.32 210.25,-424.32 210.25,-436.32 210.25,-436.32 210.25,-442.32 204.25,-448.32 198.25,-448.32"/>
<text text-anchor="middle" x="179" y="-426.44" font-family="Helvetica,sans-Serif" font-size="10.00">drugAdmin</text>
</g>
<!-- d3_call&#45;&gt;d3_admin -->
<g id="edge12" class="edge">
<title>d3_call&#45;&gt;d3_admin</title>
<path fill="none" stroke="black" d="M179,-485.13C179,-477.54 179,-468.42 179,-459.86"/>
<polygon fill="black" stroke="black" points="182.5,-459.86 179,-449.86 175.5,-459.86 182.5,-459.86"/>
</g>
<!-- c_call -->
<g id="node15" class="node">
<title>c_call</title>
<polygon fill="#ffffcc" stroke="black" points="210.62,-294.32 141.38,-294.32 141.38,-258.32 216.62,-258.32 216.62,-288.32 210.62,-294.32"/>
<polyline fill="none" stroke="black" points="210.62,-294.32 210.62,-288.32"/>
<polyline fill="none" stroke="black" points="216.62,-288.32 210.62,-288.32"/>
<text text-anchor="middle" x="179" y="-272.64" font-family="Helvetica,sans-Serif" font-size="9.00">CallConfirmed</text>
</g>
<!-- d3_admin&#45;&gt;c_call -->
<g id="edge13" class="edge">
<title>d3_admin&#45;&gt;c_call</title>
<path fill="none" stroke="black" d="M179,-411.88C179,-403.93 179,-393.81 179,-382.71"/>
<polygon fill="black" stroke="black" points="182.5,-382.83 179,-372.83 175.5,-382.83 182.5,-382.83"/>
<text text-anchor="middle" x="185.38" y="-380.72" font-family="Helvetica,sans-Serif" font-size="8.00" fill="#666666">seq</text>
</g>
<!-- c_checkup -->
<g id="node16" class="node">
<title>c_checkup</title>
<path fill="#d5e8d4" stroke="black" d="M194,-221.32C194,-221.32 164,-221.32 164,-221.32 158,-221.32 152,-215.32 152,-209.32 152,-209.32 152,-197.32 152,-197.32 152,-191.32 158,-185.32 164,-185.32 164,-185.32 194,-185.32 194,-185.32 200,-185.32 206,-191.32 206,-197.32 206,-197.32 206,-209.32 206,-209.32 206,-215.32 200,-221.32 194,-221.32"/>
<text text-anchor="middle" x="179" y="-199.44" font-family="Helvetica,sans-Serif" font-size="10.00">checkup</text>
</g>
<!-- c_call&#45;&gt;c_checkup -->
<g id="edge14" class="edge">
<title>c_call&#45;&gt;c_checkup</title>
<path fill="none" stroke="black" d="M179,-258.13C179,-250.54 179,-241.42 179,-232.86"/>
<polygon fill="black" stroke="black" points="182.5,-232.86 179,-222.86 175.5,-232.86 182.5,-232.86"/>
</g>
<!-- unbounded_label -->
<g id="node17" class="node">
<title>unbounded_label</title>
<text text-anchor="middle" x="179" y="-126.64" font-family="Helvetica,sans-Serif" font-size="9.00" fill="#888888">... repeats ...</text>
</g>
<!-- c_checkup&#45;&gt;unbounded_label -->
<g id="edge15" class="edge">
<title>c_checkup&#45;&gt;unbounded_label</title>
<path fill="none" stroke="black" d="M179,-185.13C179,-177.34 179,-167.94 179,-159.18"/>
<polygon fill="black" stroke="black" points="182.5,-159.37 179,-149.37 175.5,-159.37 182.5,-159.37"/>
</g>
<!-- output -->
<g id="node19" class="node">
<title>output</title>
<polygon fill="#dae8fc" stroke="black" points="138.14,-18.42 179,0 219.86,-18.42 219.82,-48.22 138.18,-48.22 138.14,-18.42"/>
<text text-anchor="middle" x="179" y="-28.41" font-family="Helvetica,sans-Serif" font-size="10.00">Patient</text>
<text text-anchor="middle" x="179" y="-17.16" font-family="Helvetica,sans-Serif" font-size="10.00">&quot;Jose&quot;</text>
</g>
<!-- unbounded_label&#45;&gt;output -->
<g id="edge19" class="edge">
<title>unbounded_label&#45;&gt;output</title>
<path fill="none" stroke="black" stroke-dasharray="5,2" d="M179,-104.32C179,-90.99 179,-74.43 179,-60.12"/>
<polygon fill="black" stroke="black" points="182.5,-60.22 179,-50.22 175.5,-60.22 182.5,-60.22"/>
</g>
</g>
</svg>
